<svg xmlns="http://www.w3.org/2000/svg" viewBox="0 0 64 64" role="img" aria-labelledby="title desc">
  <title id="title">AIK Neon R Logo</title>
  <desc id="desc">Neon letter R with a mouse and cherry silhouette</desc>
  <defs>
    <linearGradient id="bgGradient" x1="0%" y1="100%" x2="100%" y2="0%">
      <stop offset="0%" stop-color="#210044" />
      <stop offset="100%" stop-color="#1d9be0" />
    </linearGradient>
    <linearGradient id="rGradient" x1="0%" y1="0%" x2="100%" y2="100%">
      <stop offset="0%" stop-color="#9f6bff" />
      <stop offset="100%" stop-color="#41e0ff" />
    </linearGradient>
    <radialGradient id="cherryGradient" cx="50%" cy="40%" r="65%">
      <stop offset="0%" stop-color="#fecdd3" />
      <stop offset="45%" stop-color="#fb7185" />
      <stop offset="100%" stop-color="#e11d48" />
    </radialGradient>
  </defs>
  <rect width="64" height="64" rx="14" fill="url(#bgGradient)" />
  <path
    d="M20 10H34C45 10 50 16 50 25C50 33 44.5 38 37.5 39.7L50 50H39L30.2 36H28V50H20ZM28 18V28H35C39 28 42 26 42 22.5C42 19 39 18 35 18Z"
    fill="url(#rGradient)"
    stroke="#a5f3fc"
    stroke-width="1.2"
    stroke-linejoin="round"
    fill-rule="evenodd"
  />
  <g fill="#f1f5f9">
    <ellipse cx="34.5" cy="36.8" rx="6.5" ry="4.5" fill="#e2e8f0" />
    <circle cx="31.5" cy="30" r="3.4" />
    <circle cx="29" cy="27" r="2" fill="#cbd5f5" />
  </g>
  <path
    d="M36.5 39.2C38.3 42 41.4 43.4 43.6 43.9"
    fill="none"
    stroke="#f8fafc"
    stroke-width="1.1"
    stroke-linecap="round"
  />
  <circle cx="38.2" cy="24.5" r="2.4" fill="url(#cherryGradient)" />
  <path
    d="M38.2 22.1C39.6 19.8 41.7 18.3 44.6 17.7"
    fill="none"
    stroke="#bbf7d0"
    stroke-width="0.9"
    stroke-linecap="round"
  />
</svg>
